G04 #@! TF.FileFunction,Copper,L2,Bot,Signal*
%FSLAX46Y46*%
G04 Gerber Fmt 4.6, Leading zero omitted, Abs format (unit mm)*
G04 Created by KiCad (PCBNEW 4.0.3-stable) date 01/18/17 14:09:55*
%MOMM*%
%LPD*%
G01*
G04 APERTURE LIST*
%ADD10C,0.100000*%
%ADD11R,3.000000X3.000000*%
%ADD12R,1.727200X2.032000*%
%ADD13O,1.727200X2.032000*%
%ADD14C,0.838200*%
%ADD15C,0.609600*%
%ADD16C,1.219200*%
%ADD17C,0.025400*%
G04 APERTURE END LIST*
D10*
D11*
X139700000Y-96139000D03*
X141224000Y-99187000D03*
X138176000Y-99187000D03*
X141224000Y-102235000D03*
X138176000Y-102235000D03*
D12*
X137160000Y-110490000D03*
D13*
X139700000Y-110490000D03*
X142240000Y-110490000D03*
D14*
X142621000Y-96520000D03*
X142240000Y-95631000D03*
X142621000Y-94742000D03*
X137287000Y-95631000D03*
X136906000Y-94742000D03*
X136906000Y-96520000D03*
X140716000Y-107569000D03*
X138684000Y-107569000D03*
D15*
X142621000Y-96520000D02*
X142621000Y-96012000D01*
X142621000Y-95250000D02*
X142240000Y-95631000D01*
X142621000Y-94742000D02*
X142621000Y-95250000D01*
X142240000Y-95631000D02*
X140208000Y-95631000D01*
X142621000Y-96012000D02*
X142240000Y-95631000D01*
X140208000Y-95631000D02*
X139700000Y-96139000D01*
X136906000Y-96520000D02*
X136906000Y-96012000D01*
X136906000Y-95250000D02*
X137287000Y-95631000D01*
X139192000Y-95631000D02*
X137287000Y-95631000D01*
X136906000Y-94742000D02*
X136906000Y-95250000D01*
X136906000Y-96012000D02*
X137287000Y-95631000D01*
X139192000Y-95631000D02*
X139700000Y-96139000D01*
D16*
X140716000Y-107569000D02*
X139700000Y-107569000D01*
X138684000Y-107569000D02*
X139700000Y-107569000D01*
X139700000Y-107569000D02*
X139700000Y-109347000D01*
D17*
G36*
X143322300Y-107937300D02*
X136077700Y-107937300D01*
X136077700Y-94167700D01*
X143322300Y-94167700D01*
X143322300Y-107937300D01*
X143322300Y-107937300D01*
G37*
X143322300Y-107937300D02*
X136077700Y-107937300D01*
X136077700Y-94167700D01*
X143322300Y-94167700D01*
X143322300Y-107937300D01*
M02*
