G04 #@! TF.FileFunction,Legend,Top*
%FSLAX46Y46*%
G04 Gerber Fmt 4.6, Leading zero omitted, Abs format (unit mm)*
G04 Created by KiCad (PCBNEW 4.0.3-stable) date 01/18/17 14:09:55*
%MOMM*%
%LPD*%
G01*
G04 APERTURE LIST*
%ADD10C,0.100000*%
%ADD11C,0.150000*%
%ADD12C,0.076200*%
%ADD13C,0.101600*%
%ADD14C,0.300000*%
G04 APERTURE END LIST*
D10*
D11*
X137326714Y-96180714D02*
X137362428Y-96145000D01*
X137433857Y-96109286D01*
X137612428Y-96109286D01*
X137683857Y-96145000D01*
X137719571Y-96180714D01*
X137755286Y-96252143D01*
X137755286Y-96323571D01*
X137719571Y-96430714D01*
X137291000Y-96859286D01*
X137755286Y-96859286D01*
D10*
X141565334Y-98786190D02*
X141874857Y-98786190D01*
X141708191Y-98976667D01*
X141779619Y-98976667D01*
X141827238Y-99000476D01*
X141851048Y-99024286D01*
X141874857Y-99071905D01*
X141874857Y-99190952D01*
X141851048Y-99238571D01*
X141827238Y-99262381D01*
X141779619Y-99286190D01*
X141636762Y-99286190D01*
X141589143Y-99262381D01*
X141565334Y-99238571D01*
X141335143Y-99722810D02*
X141358953Y-99699000D01*
X141406572Y-99675190D01*
X141525619Y-99675190D01*
X141573238Y-99699000D01*
X141597048Y-99722810D01*
X141620857Y-99770429D01*
X141620857Y-99818048D01*
X141597048Y-99889476D01*
X141311334Y-100175190D01*
X141620857Y-100175190D01*
X141620857Y-98397190D02*
X141335143Y-98397190D01*
X141478000Y-98397190D02*
X141478000Y-97897190D01*
X141430381Y-97968619D01*
X141382762Y-98016238D01*
X141335143Y-98040048D01*
X136866334Y-98024190D02*
X137175857Y-98024190D01*
X137009191Y-98214667D01*
X137080619Y-98214667D01*
X137128238Y-98238476D01*
X137152048Y-98262286D01*
X137175857Y-98309905D01*
X137175857Y-98428952D01*
X137152048Y-98476571D01*
X137128238Y-98500381D01*
X137080619Y-98524190D01*
X136937762Y-98524190D01*
X136890143Y-98500381D01*
X136866334Y-98476571D01*
X137906143Y-99595810D02*
X137929953Y-99572000D01*
X137977572Y-99548190D01*
X138096619Y-99548190D01*
X138144238Y-99572000D01*
X138168048Y-99595810D01*
X138191857Y-99643429D01*
X138191857Y-99691048D01*
X138168048Y-99762476D01*
X137882334Y-100048190D01*
X138191857Y-100048190D01*
X137810857Y-100937190D02*
X137525143Y-100937190D01*
X137668000Y-100937190D02*
X137668000Y-100437190D01*
X137620381Y-100508619D01*
X137572762Y-100556238D01*
X137525143Y-100580048D01*
D11*
X140847000Y-102840286D02*
X141311286Y-102840286D01*
X141061286Y-103126000D01*
X141168428Y-103126000D01*
X141239857Y-103161714D01*
X141275571Y-103197429D01*
X141311286Y-103268857D01*
X141311286Y-103447429D01*
X141275571Y-103518857D01*
X141239857Y-103554571D01*
X141168428Y-103590286D01*
X140954143Y-103590286D01*
X140882714Y-103554571D01*
X140847000Y-103518857D01*
X138596714Y-102911714D02*
X138632428Y-102876000D01*
X138703857Y-102840286D01*
X138882428Y-102840286D01*
X138953857Y-102876000D01*
X138989571Y-102911714D01*
X139025286Y-102983143D01*
X139025286Y-103054571D01*
X138989571Y-103161714D01*
X138561000Y-103590286D01*
X139025286Y-103590286D01*
X136739286Y-103590286D02*
X136310714Y-103590286D01*
X136525000Y-103590286D02*
X136525000Y-102840286D01*
X136453571Y-102947429D01*
X136382143Y-103018857D01*
X136310714Y-103054571D01*
D12*
X143301357Y-97245715D02*
X142920357Y-97245715D01*
X143065500Y-97245715D02*
X143047357Y-97209429D01*
X143047357Y-97136858D01*
X143065500Y-97100572D01*
X143083643Y-97082429D01*
X143119929Y-97064286D01*
X143228786Y-97064286D01*
X143265071Y-97082429D01*
X143283214Y-97100572D01*
X143301357Y-97136858D01*
X143301357Y-97209429D01*
X143283214Y-97245715D01*
X143047357Y-96937286D02*
X143301357Y-96846572D01*
X143047357Y-96755858D02*
X143301357Y-96846572D01*
X143392071Y-96882858D01*
X143410214Y-96901001D01*
X143428357Y-96937286D01*
X143301357Y-96320429D02*
X142920357Y-96320429D01*
X142920357Y-96229714D01*
X142938500Y-96175286D01*
X142974786Y-96139000D01*
X143011071Y-96120857D01*
X143083643Y-96102714D01*
X143138071Y-96102714D01*
X143210643Y-96120857D01*
X143246929Y-96139000D01*
X143283214Y-96175286D01*
X143301357Y-96229714D01*
X143301357Y-96320429D01*
X143283214Y-95794286D02*
X143301357Y-95830572D01*
X143301357Y-95903143D01*
X143283214Y-95939429D01*
X143246929Y-95957572D01*
X143101786Y-95957572D01*
X143065500Y-95939429D01*
X143047357Y-95903143D01*
X143047357Y-95830572D01*
X143065500Y-95794286D01*
X143101786Y-95776143D01*
X143138071Y-95776143D01*
X143174357Y-95957572D01*
X143047357Y-95449572D02*
X143301357Y-95449572D01*
X143047357Y-95612858D02*
X143246929Y-95612858D01*
X143283214Y-95594715D01*
X143301357Y-95558429D01*
X143301357Y-95504001D01*
X143283214Y-95467715D01*
X143265071Y-95449572D01*
X143301357Y-95304429D02*
X143047357Y-95104858D01*
X143047357Y-95304429D02*
X143301357Y-95104858D01*
X142920357Y-95014143D02*
X143301357Y-94887143D01*
X142920357Y-94760143D01*
X143301357Y-94633144D02*
X143047357Y-94633144D01*
X142920357Y-94633144D02*
X142938500Y-94651287D01*
X142956643Y-94633144D01*
X142938500Y-94615001D01*
X142920357Y-94633144D01*
X142956643Y-94633144D01*
X143283214Y-94469858D02*
X143301357Y-94433572D01*
X143301357Y-94361000D01*
X143283214Y-94324715D01*
X143246929Y-94306572D01*
X143228786Y-94306572D01*
X143192500Y-94324715D01*
X143174357Y-94361000D01*
X143174357Y-94415429D01*
X143156214Y-94451715D01*
X143119929Y-94469858D01*
X143101786Y-94469858D01*
X143065500Y-94451715D01*
X143047357Y-94415429D01*
X143047357Y-94361000D01*
X143065500Y-94324715D01*
D13*
X136500810Y-101926575D02*
X135992810Y-101926575D01*
X136234714Y-101926575D02*
X136234714Y-101636289D01*
X136500810Y-101636289D02*
X135992810Y-101636289D01*
X136500810Y-101176670D02*
X136234714Y-101176670D01*
X136186333Y-101200861D01*
X136162143Y-101249242D01*
X136162143Y-101346004D01*
X136186333Y-101394385D01*
X136476619Y-101176670D02*
X136500810Y-101225051D01*
X136500810Y-101346004D01*
X136476619Y-101394385D01*
X136428238Y-101418575D01*
X136379857Y-101418575D01*
X136331476Y-101394385D01*
X136307286Y-101346004D01*
X136307286Y-101225051D01*
X136283095Y-101176670D01*
X136162143Y-100983147D02*
X136500810Y-100862194D01*
X136162143Y-100741242D01*
X136476619Y-100354194D02*
X136500810Y-100402575D01*
X136500810Y-100499337D01*
X136476619Y-100547718D01*
X136428238Y-100571908D01*
X136234714Y-100571908D01*
X136186333Y-100547718D01*
X136162143Y-100499337D01*
X136162143Y-100402575D01*
X136186333Y-100354194D01*
X136234714Y-100330003D01*
X136283095Y-100330003D01*
X136331476Y-100571908D01*
X136476619Y-100136479D02*
X136500810Y-100063908D01*
X136500810Y-99942955D01*
X136476619Y-99894574D01*
X136452429Y-99870384D01*
X136404048Y-99846193D01*
X136355667Y-99846193D01*
X136307286Y-99870384D01*
X136283095Y-99894574D01*
X136258905Y-99942955D01*
X136234714Y-100039717D01*
X136210524Y-100088098D01*
X136186333Y-100112289D01*
X136137952Y-100136479D01*
X136089571Y-100136479D01*
X136041190Y-100112289D01*
X136017000Y-100088098D01*
X135992810Y-100039717D01*
X135992810Y-99918765D01*
X136017000Y-99846193D01*
X136500810Y-99555907D02*
X136476619Y-99604288D01*
X136452429Y-99628479D01*
X136404048Y-99652669D01*
X136258905Y-99652669D01*
X136210524Y-99628479D01*
X136186333Y-99604288D01*
X136162143Y-99555907D01*
X136162143Y-99483336D01*
X136186333Y-99434955D01*
X136210524Y-99410764D01*
X136258905Y-99386574D01*
X136404048Y-99386574D01*
X136452429Y-99410764D01*
X136476619Y-99434955D01*
X136500810Y-99483336D01*
X136500810Y-99555907D01*
X136500810Y-99168860D02*
X136162143Y-99168860D01*
X136210524Y-99168860D02*
X136186333Y-99144669D01*
X136162143Y-99096288D01*
X136162143Y-99023717D01*
X136186333Y-98975336D01*
X136234714Y-98951145D01*
X136500810Y-98951145D01*
X136234714Y-98951145D02*
X136186333Y-98926955D01*
X136162143Y-98878574D01*
X136162143Y-98806002D01*
X136186333Y-98757622D01*
X136234714Y-98733431D01*
X136500810Y-98733431D01*
X136476619Y-98298003D02*
X136500810Y-98346384D01*
X136500810Y-98443146D01*
X136476619Y-98491527D01*
X136428238Y-98515717D01*
X136234714Y-98515717D01*
X136186333Y-98491527D01*
X136162143Y-98443146D01*
X136162143Y-98346384D01*
X136186333Y-98298003D01*
X136234714Y-98273812D01*
X136283095Y-98273812D01*
X136331476Y-98515717D01*
X136500810Y-97669050D02*
X135992810Y-97669050D01*
X135992810Y-97475526D01*
X136017000Y-97427145D01*
X136041190Y-97402954D01*
X136089571Y-97378764D01*
X136162143Y-97378764D01*
X136210524Y-97402954D01*
X136234714Y-97427145D01*
X136258905Y-97475526D01*
X136258905Y-97669050D01*
X136452429Y-96870764D02*
X136476619Y-96894954D01*
X136500810Y-96967526D01*
X136500810Y-97015907D01*
X136476619Y-97088478D01*
X136428238Y-97136859D01*
X136379857Y-97161050D01*
X136283095Y-97185240D01*
X136210524Y-97185240D01*
X136113762Y-97161050D01*
X136065381Y-97136859D01*
X136017000Y-97088478D01*
X135992810Y-97015907D01*
X135992810Y-96967526D01*
X136017000Y-96894954D01*
X136041190Y-96870764D01*
X136234714Y-96483716D02*
X136258905Y-96411145D01*
X136283095Y-96386954D01*
X136331476Y-96362764D01*
X136404048Y-96362764D01*
X136452429Y-96386954D01*
X136476619Y-96411145D01*
X136500810Y-96459526D01*
X136500810Y-96653050D01*
X135992810Y-96653050D01*
X135992810Y-96483716D01*
X136017000Y-96435335D01*
X136041190Y-96411145D01*
X136089571Y-96386954D01*
X136137952Y-96386954D01*
X136186333Y-96411145D01*
X136210524Y-96435335D01*
X136234714Y-96483716D01*
X136234714Y-96653050D01*
X135992810Y-95830573D02*
X136500810Y-95661240D01*
X135992810Y-95491906D01*
X136500810Y-95056477D02*
X136500810Y-95346763D01*
X136500810Y-95201620D02*
X135992810Y-95201620D01*
X136065381Y-95250001D01*
X136113762Y-95298382D01*
X136137952Y-95346763D01*
X136452429Y-94838763D02*
X136476619Y-94814572D01*
X136500810Y-94838763D01*
X136476619Y-94862953D01*
X136452429Y-94838763D01*
X136500810Y-94838763D01*
X136500810Y-94330762D02*
X136500810Y-94621048D01*
X136500810Y-94475905D02*
X135992810Y-94475905D01*
X136065381Y-94524286D01*
X136113762Y-94572667D01*
X136137952Y-94621048D01*
D14*
X141740001Y-107382571D02*
X142668572Y-107382571D01*
X142168572Y-107954000D01*
X142382858Y-107954000D01*
X142525715Y-108025429D01*
X142597144Y-108096857D01*
X142668572Y-108239714D01*
X142668572Y-108596857D01*
X142597144Y-108739714D01*
X142525715Y-108811143D01*
X142382858Y-108882571D01*
X141954286Y-108882571D01*
X141811429Y-108811143D01*
X141740001Y-108739714D01*
X139271429Y-107525429D02*
X139342858Y-107454000D01*
X139485715Y-107382571D01*
X139842858Y-107382571D01*
X139985715Y-107454000D01*
X140057144Y-107525429D01*
X140128572Y-107668286D01*
X140128572Y-107811143D01*
X140057144Y-108025429D01*
X139200001Y-108882571D01*
X140128572Y-108882571D01*
X137588572Y-108882571D02*
X136731429Y-108882571D01*
X137160001Y-108882571D02*
X137160001Y-107382571D01*
X137017144Y-107596857D01*
X136874286Y-107739714D01*
X136731429Y-107811143D01*
M02*
