G04 #@! TF.FileFunction,Copper,L1,Top,Signal*
%FSLAX46Y46*%
G04 Gerber Fmt 4.6, Leading zero omitted, Abs format (unit mm)*
G04 Created by KiCad (PCBNEW 4.0.3-stable) date 01/18/17 14:09:55*
%MOMM*%
%LPD*%
G01*
G04 APERTURE LIST*
%ADD10C,0.100000*%
%ADD11R,0.800100X0.800100*%
%ADD12R,3.657600X2.032000*%
%ADD13R,1.016000X2.032000*%
%ADD14R,1.000760X0.599440*%
%ADD15R,0.400000X0.600000*%
%ADD16R,0.500000X0.900000*%
%ADD17R,0.700000X1.300000*%
%ADD18R,0.900000X1.700000*%
%ADD19R,1.727200X2.032000*%
%ADD20O,1.727200X2.032000*%
%ADD21C,0.838200*%
%ADD22C,1.000000*%
%ADD23C,1.219200*%
%ADD24C,0.914400*%
%ADD25C,0.609600*%
%ADD26C,0.600000*%
%ADD27C,0.800000*%
%ADD28C,0.500000*%
%ADD29C,0.304800*%
%ADD30C,0.025400*%
G04 APERTURE END LIST*
D10*
D11*
X136845000Y-100060760D03*
X138745000Y-100060760D03*
X137795000Y-98061780D03*
D12*
X139700000Y-95758000D03*
D13*
X139700000Y-102362000D03*
X141986000Y-102362000D03*
X137414000Y-102362000D03*
D14*
X140655040Y-99710240D03*
X140655040Y-98409760D03*
X142554960Y-99060000D03*
D15*
X142182000Y-106045000D03*
X141282000Y-106045000D03*
D16*
X139053000Y-106045000D03*
X137553000Y-106045000D03*
D17*
X142682000Y-106045000D03*
X140782000Y-106045000D03*
D18*
X139753000Y-106045000D03*
X136853000Y-106045000D03*
D19*
X137160000Y-110490000D03*
D20*
X139700000Y-110490000D03*
X142240000Y-110490000D03*
D21*
X142621000Y-96520000D03*
X142240000Y-95631000D03*
X142621000Y-94742000D03*
X137287000Y-95631000D03*
X136906000Y-94742000D03*
X136906000Y-96520000D03*
X140716000Y-107569000D03*
X138684000Y-107569000D03*
D22*
X136906000Y-96520000D02*
X136906000Y-94742000D01*
D23*
X139753000Y-106045000D02*
X139753000Y-108170875D01*
X139719875Y-108204000D02*
X139700000Y-108204000D01*
X139753000Y-108170875D02*
X139719875Y-108204000D01*
D24*
X139700000Y-108204000D02*
X140716000Y-107569000D01*
X140716000Y-107569000D02*
X139753000Y-106045000D01*
X139753000Y-104521000D02*
X139753000Y-104140000D01*
X139753000Y-103886000D02*
X139753000Y-102415000D01*
X139753000Y-106045000D02*
X139753000Y-104521000D01*
X139753000Y-104140000D02*
X139753000Y-103886000D01*
D25*
X139700000Y-100060760D02*
X139700000Y-100838000D01*
X139700000Y-100838000D02*
X139700000Y-102362000D01*
D26*
X140655040Y-99710240D02*
X139715240Y-99710240D01*
X139715240Y-99710240D02*
X139700000Y-99695000D01*
D27*
X138745000Y-100060760D02*
X138745000Y-100708500D01*
X138745000Y-100708500D02*
X138747500Y-100711000D01*
D28*
X139753000Y-102415000D02*
X139700000Y-102362000D01*
D24*
X139700000Y-106098000D02*
X138684000Y-107569000D01*
X138684000Y-107569000D02*
X139580471Y-108174118D01*
X139580471Y-108174118D02*
X139700000Y-108204000D01*
X139700000Y-108204000D02*
X139700000Y-110490000D01*
D28*
X139700000Y-106098000D02*
X139753000Y-106045000D01*
D29*
X141290000Y-106045000D02*
X139245000Y-106045000D01*
D28*
X139053000Y-106045000D02*
X139753000Y-106045000D01*
X140655040Y-99710240D02*
X140065760Y-99710240D01*
X139715240Y-100060760D02*
X139700000Y-100060760D01*
D25*
X139700000Y-100060760D02*
X138745000Y-100060760D01*
D28*
X140065760Y-99710240D02*
X139715240Y-100060760D01*
D22*
X142621000Y-94742000D02*
X142621000Y-96520000D01*
X142065000Y-95631000D02*
X142621000Y-96520000D01*
X142065000Y-95631000D02*
X142065000Y-95250000D01*
X139700000Y-95758000D02*
X142065000Y-95631000D01*
X142065000Y-95250000D02*
X142621000Y-94742000D01*
X137160000Y-95631000D02*
X137160000Y-95885000D01*
X137160000Y-95885000D02*
X136779000Y-96520000D01*
X137160000Y-95631000D02*
X137160000Y-95123000D01*
X139700000Y-95758000D02*
X137160000Y-95631000D01*
X137160000Y-95123000D02*
X136779000Y-94742000D01*
D25*
X137414000Y-102362000D02*
X137414000Y-103886000D01*
X137414000Y-103886000D02*
X136853000Y-104447000D01*
X136853000Y-104447000D02*
X136853000Y-106045000D01*
X140655040Y-98409760D02*
X139905740Y-98409760D01*
X139334240Y-98409760D02*
X138684000Y-99060000D01*
X138684000Y-99060000D02*
X137668000Y-99060000D01*
X137668000Y-99060000D02*
X136845000Y-99883000D01*
X139905740Y-98409760D02*
X139334240Y-98409760D01*
D27*
X136845000Y-100060760D02*
X136845000Y-100708500D01*
X136845000Y-100708500D02*
X136842500Y-100711000D01*
D25*
X137414000Y-102362000D02*
X137033000Y-100711000D01*
X137033000Y-100711000D02*
X136845000Y-100060760D01*
X137054000Y-106246000D02*
X137054000Y-108204000D01*
X137054000Y-108204000D02*
X137054000Y-110384000D01*
D28*
X137054000Y-106246000D02*
X136853000Y-106045000D01*
X137553000Y-106045000D02*
X136853000Y-106045000D01*
X137054000Y-110384000D02*
X137160000Y-110490000D01*
D26*
X137795000Y-98061780D02*
X137795000Y-97536000D01*
D25*
X141986000Y-102362000D02*
X141986000Y-103886000D01*
X141986000Y-103886000D02*
X142682000Y-104582000D01*
X142682000Y-104582000D02*
X142682000Y-106045000D01*
D26*
X142554960Y-99060000D02*
X143129000Y-99060000D01*
D25*
X142240000Y-108204000D02*
X142240000Y-107696000D01*
X142240000Y-107696000D02*
X142748000Y-107188000D01*
X142748000Y-107188000D02*
X142748000Y-106111000D01*
X142240000Y-110490000D02*
X142240000Y-108204000D01*
D28*
X142748000Y-106111000D02*
X142682000Y-106045000D01*
D29*
X142182000Y-106045000D02*
X142682000Y-106045000D01*
D28*
X141986000Y-102362000D02*
X141986000Y-102870000D01*
D25*
X142554960Y-99060000D02*
X142554960Y-100390960D01*
X142554960Y-100390960D02*
X141986000Y-100959920D01*
X141986000Y-100959920D02*
X141986000Y-102362000D01*
D28*
X137795000Y-98061780D02*
X137795000Y-97917000D01*
D25*
X137795000Y-97917000D02*
X138176000Y-97536000D01*
X142554960Y-97850960D02*
X142554960Y-99060000D01*
X142240000Y-97536000D02*
X142554960Y-97850960D01*
X138176000Y-97536000D02*
X142240000Y-97536000D01*
D30*
G36*
X143322300Y-97015300D02*
X136077700Y-97015300D01*
X136077700Y-96269175D01*
X137858500Y-96269175D01*
X137858500Y-96776526D01*
X137860434Y-96781194D01*
X137864006Y-96784767D01*
X137868674Y-96786700D01*
X138782425Y-96786700D01*
X138785600Y-96783525D01*
X138785600Y-96266000D01*
X140614400Y-96266000D01*
X140614400Y-96783525D01*
X140617575Y-96786700D01*
X141531326Y-96786700D01*
X141535994Y-96784767D01*
X141539566Y-96781194D01*
X141541500Y-96776526D01*
X141541500Y-96269175D01*
X141538325Y-96266000D01*
X140614400Y-96266000D01*
X138785600Y-96266000D01*
X137861675Y-96266000D01*
X137858500Y-96269175D01*
X136077700Y-96269175D01*
X136077700Y-94739474D01*
X137858500Y-94739474D01*
X137858500Y-95246825D01*
X137861675Y-95250000D01*
X138785600Y-95250000D01*
X138785600Y-94732475D01*
X140614400Y-94732475D01*
X140614400Y-95250000D01*
X141538325Y-95250000D01*
X141541500Y-95246825D01*
X141541500Y-94739474D01*
X141539566Y-94734806D01*
X141535994Y-94731233D01*
X141531326Y-94729300D01*
X140617575Y-94729300D01*
X140614400Y-94732475D01*
X138785600Y-94732475D01*
X138782425Y-94729300D01*
X137868674Y-94729300D01*
X137864006Y-94731233D01*
X137860434Y-94734806D01*
X137858500Y-94739474D01*
X136077700Y-94739474D01*
X136077700Y-94167700D01*
X143322300Y-94167700D01*
X143322300Y-97015300D01*
X143322300Y-97015300D01*
G37*
X143322300Y-97015300D02*
X136077700Y-97015300D01*
X136077700Y-96269175D01*
X137858500Y-96269175D01*
X137858500Y-96776526D01*
X137860434Y-96781194D01*
X137864006Y-96784767D01*
X137868674Y-96786700D01*
X138782425Y-96786700D01*
X138785600Y-96783525D01*
X138785600Y-96266000D01*
X140614400Y-96266000D01*
X140614400Y-96783525D01*
X140617575Y-96786700D01*
X141531326Y-96786700D01*
X141535994Y-96784767D01*
X141539566Y-96781194D01*
X141541500Y-96776526D01*
X141541500Y-96269175D01*
X141538325Y-96266000D01*
X140614400Y-96266000D01*
X138785600Y-96266000D01*
X137861675Y-96266000D01*
X137858500Y-96269175D01*
X136077700Y-96269175D01*
X136077700Y-94739474D01*
X137858500Y-94739474D01*
X137858500Y-95246825D01*
X137861675Y-95250000D01*
X138785600Y-95250000D01*
X138785600Y-94732475D01*
X140614400Y-94732475D01*
X140614400Y-95250000D01*
X141538325Y-95250000D01*
X141541500Y-95246825D01*
X141541500Y-94739474D01*
X141539566Y-94734806D01*
X141535994Y-94731233D01*
X141531326Y-94729300D01*
X140617575Y-94729300D01*
X140614400Y-94732475D01*
X138785600Y-94732475D01*
X138782425Y-94729300D01*
X137868674Y-94729300D01*
X137864006Y-94731233D01*
X137860434Y-94734806D01*
X137858500Y-94739474D01*
X136077700Y-94739474D01*
X136077700Y-94167700D01*
X143322300Y-94167700D01*
X143322300Y-97015300D01*
M02*
