G04 #@! TF.FileFunction,Legend,Top*
%FSLAX46Y46*%
G04 Gerber Fmt 4.6, Leading zero omitted, Abs format (unit mm)*
G04 Created by KiCad (PCBNEW 4.0.2-4+6225~38~ubuntu14.04.1-stable) date lun. 04 juil. 2016 17:03:06 CEST*
%MOMM*%
G01*
G04 APERTURE LIST*
%ADD10C,0.100000*%
%ADD11C,0.050800*%
%ADD12C,0.300000*%
G04 APERTURE END LIST*
D10*
D11*
X143243905Y-96223667D02*
X142989905Y-96223667D01*
X143086667Y-96223667D02*
X143074571Y-96199476D01*
X143074571Y-96151095D01*
X143086667Y-96126905D01*
X143098762Y-96114810D01*
X143122952Y-96102714D01*
X143195524Y-96102714D01*
X143219714Y-96114810D01*
X143231810Y-96126905D01*
X143243905Y-96151095D01*
X143243905Y-96199476D01*
X143231810Y-96223667D01*
X143074571Y-96018047D02*
X143243905Y-95957571D01*
X143074571Y-95897095D02*
X143243905Y-95957571D01*
X143304381Y-95981762D01*
X143316476Y-95993857D01*
X143328571Y-96018047D01*
X143243905Y-95606809D02*
X142989905Y-95606809D01*
X142989905Y-95546333D01*
X143002000Y-95510047D01*
X143026190Y-95485856D01*
X143050381Y-95473761D01*
X143098762Y-95461666D01*
X143135048Y-95461666D01*
X143183429Y-95473761D01*
X143207619Y-95485856D01*
X143231810Y-95510047D01*
X143243905Y-95546333D01*
X143243905Y-95606809D01*
X143231810Y-95256047D02*
X143243905Y-95280237D01*
X143243905Y-95328618D01*
X143231810Y-95352809D01*
X143207619Y-95364904D01*
X143110857Y-95364904D01*
X143086667Y-95352809D01*
X143074571Y-95328618D01*
X143074571Y-95280237D01*
X143086667Y-95256047D01*
X143110857Y-95243952D01*
X143135048Y-95243952D01*
X143159238Y-95364904D01*
X143074571Y-95026238D02*
X143243905Y-95026238D01*
X143074571Y-95135095D02*
X143207619Y-95135095D01*
X143231810Y-95123000D01*
X143243905Y-95098809D01*
X143243905Y-95062523D01*
X143231810Y-95038333D01*
X143219714Y-95026238D01*
X143243905Y-94929475D02*
X143074571Y-94796428D01*
X143074571Y-94929475D02*
X143243905Y-94796428D01*
X142989905Y-94735952D02*
X143243905Y-94651285D01*
X142989905Y-94566618D01*
X143243905Y-94481952D02*
X143074571Y-94481952D01*
X142989905Y-94481952D02*
X143002000Y-94494047D01*
X143014095Y-94481952D01*
X143002000Y-94469857D01*
X142989905Y-94481952D01*
X143014095Y-94481952D01*
X143231810Y-94373095D02*
X143243905Y-94348905D01*
X143243905Y-94300524D01*
X143231810Y-94276333D01*
X143207619Y-94264238D01*
X143195524Y-94264238D01*
X143171333Y-94276333D01*
X143159238Y-94300524D01*
X143159238Y-94336809D01*
X143147143Y-94361000D01*
X143122952Y-94373095D01*
X143110857Y-94373095D01*
X143086667Y-94361000D01*
X143074571Y-94336809D01*
X143074571Y-94300524D01*
X143086667Y-94276333D01*
X136385905Y-98031905D02*
X136131905Y-98031905D01*
X136252857Y-98031905D02*
X136252857Y-97886762D01*
X136385905Y-97886762D02*
X136131905Y-97886762D01*
X136385905Y-97656953D02*
X136252857Y-97656953D01*
X136228667Y-97669048D01*
X136216571Y-97693238D01*
X136216571Y-97741619D01*
X136228667Y-97765810D01*
X136373810Y-97656953D02*
X136385905Y-97681143D01*
X136385905Y-97741619D01*
X136373810Y-97765810D01*
X136349619Y-97777905D01*
X136325429Y-97777905D01*
X136301238Y-97765810D01*
X136289143Y-97741619D01*
X136289143Y-97681143D01*
X136277048Y-97656953D01*
X136216571Y-97560190D02*
X136385905Y-97499714D01*
X136216571Y-97439238D01*
X136373810Y-97245714D02*
X136385905Y-97269904D01*
X136385905Y-97318285D01*
X136373810Y-97342476D01*
X136349619Y-97354571D01*
X136252857Y-97354571D01*
X136228667Y-97342476D01*
X136216571Y-97318285D01*
X136216571Y-97269904D01*
X136228667Y-97245714D01*
X136252857Y-97233619D01*
X136277048Y-97233619D01*
X136301238Y-97354571D01*
X136373810Y-97136857D02*
X136385905Y-97100571D01*
X136385905Y-97040095D01*
X136373810Y-97015905D01*
X136361714Y-97003809D01*
X136337524Y-96991714D01*
X136313333Y-96991714D01*
X136289143Y-97003809D01*
X136277048Y-97015905D01*
X136264952Y-97040095D01*
X136252857Y-97088476D01*
X136240762Y-97112667D01*
X136228667Y-97124762D01*
X136204476Y-97136857D01*
X136180286Y-97136857D01*
X136156095Y-97124762D01*
X136144000Y-97112667D01*
X136131905Y-97088476D01*
X136131905Y-97028000D01*
X136144000Y-96991714D01*
X136385905Y-96846571D02*
X136373810Y-96870762D01*
X136361714Y-96882857D01*
X136337524Y-96894952D01*
X136264952Y-96894952D01*
X136240762Y-96882857D01*
X136228667Y-96870762D01*
X136216571Y-96846571D01*
X136216571Y-96810285D01*
X136228667Y-96786095D01*
X136240762Y-96774000D01*
X136264952Y-96761904D01*
X136337524Y-96761904D01*
X136361714Y-96774000D01*
X136373810Y-96786095D01*
X136385905Y-96810285D01*
X136385905Y-96846571D01*
X136385905Y-96653047D02*
X136216571Y-96653047D01*
X136240762Y-96653047D02*
X136228667Y-96640952D01*
X136216571Y-96616761D01*
X136216571Y-96580475D01*
X136228667Y-96556285D01*
X136252857Y-96544190D01*
X136385905Y-96544190D01*
X136252857Y-96544190D02*
X136228667Y-96532094D01*
X136216571Y-96507904D01*
X136216571Y-96471618D01*
X136228667Y-96447428D01*
X136252857Y-96435333D01*
X136385905Y-96435333D01*
X136373810Y-96217618D02*
X136385905Y-96241808D01*
X136385905Y-96290189D01*
X136373810Y-96314380D01*
X136349619Y-96326475D01*
X136252857Y-96326475D01*
X136228667Y-96314380D01*
X136216571Y-96290189D01*
X136216571Y-96241808D01*
X136228667Y-96217618D01*
X136252857Y-96205523D01*
X136277048Y-96205523D01*
X136301238Y-96326475D01*
X136385905Y-95903142D02*
X136131905Y-95903142D01*
X136131905Y-95806380D01*
X136144000Y-95782189D01*
X136156095Y-95770094D01*
X136180286Y-95757999D01*
X136216571Y-95757999D01*
X136240762Y-95770094D01*
X136252857Y-95782189D01*
X136264952Y-95806380D01*
X136264952Y-95903142D01*
X136361714Y-95503999D02*
X136373810Y-95516094D01*
X136385905Y-95552380D01*
X136385905Y-95576570D01*
X136373810Y-95612856D01*
X136349619Y-95637047D01*
X136325429Y-95649142D01*
X136277048Y-95661237D01*
X136240762Y-95661237D01*
X136192381Y-95649142D01*
X136168190Y-95637047D01*
X136144000Y-95612856D01*
X136131905Y-95576570D01*
X136131905Y-95552380D01*
X136144000Y-95516094D01*
X136156095Y-95503999D01*
X136252857Y-95310475D02*
X136264952Y-95274189D01*
X136277048Y-95262094D01*
X136301238Y-95249999D01*
X136337524Y-95249999D01*
X136361714Y-95262094D01*
X136373810Y-95274189D01*
X136385905Y-95298380D01*
X136385905Y-95395142D01*
X136131905Y-95395142D01*
X136131905Y-95310475D01*
X136144000Y-95286285D01*
X136156095Y-95274189D01*
X136180286Y-95262094D01*
X136204476Y-95262094D01*
X136228667Y-95274189D01*
X136240762Y-95286285D01*
X136252857Y-95310475D01*
X136252857Y-95395142D01*
X136131905Y-94983904D02*
X136385905Y-94899237D01*
X136131905Y-94814570D01*
X136385905Y-94596856D02*
X136385905Y-94741999D01*
X136385905Y-94669428D02*
X136131905Y-94669428D01*
X136168190Y-94693618D01*
X136192381Y-94717809D01*
X136204476Y-94741999D01*
X136361714Y-94487999D02*
X136373810Y-94475904D01*
X136385905Y-94487999D01*
X136373810Y-94500094D01*
X136361714Y-94487999D01*
X136385905Y-94487999D01*
X136131905Y-94318666D02*
X136131905Y-94294475D01*
X136144000Y-94270285D01*
X136156095Y-94258190D01*
X136180286Y-94246094D01*
X136228667Y-94233999D01*
X136289143Y-94233999D01*
X136337524Y-94246094D01*
X136361714Y-94258190D01*
X136373810Y-94270285D01*
X136385905Y-94294475D01*
X136385905Y-94318666D01*
X136373810Y-94342856D01*
X136361714Y-94354952D01*
X136337524Y-94367047D01*
X136289143Y-94379142D01*
X136228667Y-94379142D01*
X136180286Y-94367047D01*
X136156095Y-94354952D01*
X136144000Y-94342856D01*
X136131905Y-94318666D01*
D12*
X141740001Y-107382571D02*
X142668572Y-107382571D01*
X142168572Y-107954000D01*
X142382858Y-107954000D01*
X142525715Y-108025429D01*
X142597144Y-108096857D01*
X142668572Y-108239714D01*
X142668572Y-108596857D01*
X142597144Y-108739714D01*
X142525715Y-108811143D01*
X142382858Y-108882571D01*
X141954286Y-108882571D01*
X141811429Y-108811143D01*
X141740001Y-108739714D01*
X139271429Y-107525429D02*
X139342858Y-107454000D01*
X139485715Y-107382571D01*
X139842858Y-107382571D01*
X139985715Y-107454000D01*
X140057144Y-107525429D01*
X140128572Y-107668286D01*
X140128572Y-107811143D01*
X140057144Y-108025429D01*
X139200001Y-108882571D01*
X140128572Y-108882571D01*
X137588572Y-108882571D02*
X136731429Y-108882571D01*
X137160001Y-108882571D02*
X137160001Y-107382571D01*
X137017144Y-107596857D01*
X136874286Y-107739714D01*
X136731429Y-107811143D01*
M02*
