G04 #@! TF.FileFunction,Legend,Bot*
%FSLAX46Y46*%
G04 Gerber Fmt 4.6, Leading zero omitted, Abs format (unit mm)*
G04 Created by KiCad (PCBNEW 4.0.2-4+6225~38~ubuntu14.04.1-stable) date lun. 04 juil. 2016 17:03:06 CEST*
%MOMM*%
G01*
G04 APERTURE LIST*
%ADD10C,0.100000*%
%ADD11C,0.300000*%
%ADD12C,0.010000*%
G04 APERTURE END LIST*
D10*
D11*
X142739999Y-107382571D02*
X141811428Y-107382571D01*
X142311428Y-107954000D01*
X142097142Y-107954000D01*
X141954285Y-108025429D01*
X141882856Y-108096857D01*
X141811428Y-108239714D01*
X141811428Y-108596857D01*
X141882856Y-108739714D01*
X141954285Y-108811143D01*
X142097142Y-108882571D01*
X142525714Y-108882571D01*
X142668571Y-108811143D01*
X142739999Y-108739714D01*
X140128571Y-107525429D02*
X140057142Y-107454000D01*
X139914285Y-107382571D01*
X139557142Y-107382571D01*
X139414285Y-107454000D01*
X139342856Y-107525429D01*
X139271428Y-107668286D01*
X139271428Y-107811143D01*
X139342856Y-108025429D01*
X140199999Y-108882571D01*
X139271428Y-108882571D01*
X136731428Y-108882571D02*
X137588571Y-108882571D01*
X137159999Y-108882571D02*
X137159999Y-107382571D01*
X137302856Y-107596857D01*
X137445714Y-107739714D01*
X137588571Y-107811143D01*
D12*
G36*
X138405098Y-104219686D02*
X135964706Y-104219686D01*
X135964706Y-106570431D01*
X136293411Y-106570431D01*
X136293411Y-106331372D01*
X136751607Y-106331372D01*
X136751607Y-104478666D01*
X136894175Y-104478666D01*
X136943284Y-104478999D01*
X136985671Y-104480342D01*
X137025573Y-104483212D01*
X137067225Y-104488126D01*
X137114863Y-104495601D01*
X137172724Y-104506153D01*
X137245044Y-104520299D01*
X137260234Y-104523329D01*
X137325604Y-104536429D01*
X137385426Y-104548485D01*
X137436586Y-104558865D01*
X137475973Y-104566937D01*
X137500474Y-104572066D01*
X137506137Y-104573322D01*
X137515285Y-104576310D01*
X137521530Y-104582361D01*
X137525425Y-104594800D01*
X137527524Y-104616952D01*
X137528381Y-104652145D01*
X137528548Y-104703703D01*
X137528549Y-104707954D01*
X137528323Y-104756088D01*
X137527707Y-104796093D01*
X137526789Y-104824268D01*
X137525659Y-104836913D01*
X137525432Y-104837255D01*
X137514981Y-104835387D01*
X137488293Y-104830225D01*
X137448657Y-104822425D01*
X137399360Y-104812648D01*
X137343691Y-104801552D01*
X137284939Y-104789795D01*
X137226391Y-104778036D01*
X137171336Y-104766935D01*
X137123063Y-104757149D01*
X137084859Y-104749337D01*
X137060013Y-104744159D01*
X137052921Y-104742599D01*
X137030509Y-104737267D01*
X137030509Y-106331372D01*
X137488705Y-106331372D01*
X137488705Y-106570431D01*
X136293411Y-106570431D01*
X135964706Y-106570431D01*
X135964706Y-112188313D01*
X138405098Y-112188313D01*
X138405098Y-104219686D01*
X138405098Y-104219686D01*
G37*
X138405098Y-104219686D02*
X135964706Y-104219686D01*
X135964706Y-106570431D01*
X136293411Y-106570431D01*
X136293411Y-106331372D01*
X136751607Y-106331372D01*
X136751607Y-104478666D01*
X136894175Y-104478666D01*
X136943284Y-104478999D01*
X136985671Y-104480342D01*
X137025573Y-104483212D01*
X137067225Y-104488126D01*
X137114863Y-104495601D01*
X137172724Y-104506153D01*
X137245044Y-104520299D01*
X137260234Y-104523329D01*
X137325604Y-104536429D01*
X137385426Y-104548485D01*
X137436586Y-104558865D01*
X137475973Y-104566937D01*
X137500474Y-104572066D01*
X137506137Y-104573322D01*
X137515285Y-104576310D01*
X137521530Y-104582361D01*
X137525425Y-104594800D01*
X137527524Y-104616952D01*
X137528381Y-104652145D01*
X137528548Y-104703703D01*
X137528549Y-104707954D01*
X137528323Y-104756088D01*
X137527707Y-104796093D01*
X137526789Y-104824268D01*
X137525659Y-104836913D01*
X137525432Y-104837255D01*
X137514981Y-104835387D01*
X137488293Y-104830225D01*
X137448657Y-104822425D01*
X137399360Y-104812648D01*
X137343691Y-104801552D01*
X137284939Y-104789795D01*
X137226391Y-104778036D01*
X137171336Y-104766935D01*
X137123063Y-104757149D01*
X137084859Y-104749337D01*
X137060013Y-104744159D01*
X137052921Y-104742599D01*
X137030509Y-104737267D01*
X137030509Y-106331372D01*
X137488705Y-106331372D01*
X137488705Y-106570431D01*
X136293411Y-106570431D01*
X135964706Y-106570431D01*
X135964706Y-112188313D01*
X138405098Y-112188313D01*
X138405098Y-104219686D01*
G36*
X140885333Y-104219686D02*
X138514666Y-104219686D01*
X138514666Y-106570431D01*
X139052549Y-106570431D01*
X139052549Y-106331372D01*
X140039963Y-106331372D01*
X139669020Y-105950372D01*
X139595931Y-105874929D01*
X139525184Y-105801195D01*
X139458374Y-105730879D01*
X139397096Y-105665692D01*
X139342942Y-105607343D01*
X139297508Y-105557540D01*
X139262387Y-105517994D01*
X139239174Y-105490414D01*
X139234754Y-105484706D01*
X139163626Y-105378328D01*
X139111678Y-105274467D01*
X139078547Y-105171775D01*
X139063869Y-105068905D01*
X139067281Y-104964510D01*
X139077559Y-104902000D01*
X139107657Y-104804610D01*
X139154011Y-104717431D01*
X139215427Y-104641059D01*
X139290712Y-104576093D01*
X139378672Y-104523128D01*
X139478116Y-104482763D01*
X139587848Y-104455595D01*
X139706677Y-104442221D01*
X139833408Y-104443238D01*
X139963301Y-104458632D01*
X140018026Y-104469749D01*
X140083537Y-104485757D01*
X140151952Y-104504593D01*
X140215386Y-104524196D01*
X140220781Y-104525994D01*
X140362392Y-104573546D01*
X140365153Y-104721228D01*
X140367915Y-104868910D01*
X140315310Y-104838812D01*
X140217951Y-104789123D01*
X140115267Y-104747607D01*
X140010890Y-104715128D01*
X139908454Y-104692553D01*
X139811589Y-104680745D01*
X139723928Y-104680570D01*
X139676152Y-104686616D01*
X139589840Y-104711618D01*
X139513798Y-104751461D01*
X139450134Y-104804599D01*
X139400959Y-104869488D01*
X139385227Y-104899666D01*
X139371336Y-104932370D01*
X139362865Y-104960949D01*
X139358563Y-104992401D01*
X139357177Y-105033722D01*
X139357166Y-105056392D01*
X139360431Y-105121954D01*
X139370898Y-105179084D01*
X139390546Y-105233727D01*
X139421354Y-105291830D01*
X139451004Y-105338319D01*
X139471683Y-105368358D01*
X139493911Y-105398713D01*
X139518888Y-105430702D01*
X139547812Y-105465645D01*
X139581882Y-105504863D01*
X139622296Y-105549674D01*
X139670252Y-105601400D01*
X139726950Y-105661358D01*
X139793588Y-105730871D01*
X139871365Y-105811256D01*
X139961479Y-105903835D01*
X140006027Y-105949469D01*
X140377333Y-106329566D01*
X140377333Y-106570431D01*
X139052549Y-106570431D01*
X138514666Y-106570431D01*
X138514666Y-112188313D01*
X140885333Y-112188313D01*
X140885333Y-104219686D01*
X140885333Y-104219686D01*
G37*
X140885333Y-104219686D02*
X138514666Y-104219686D01*
X138514666Y-106570431D01*
X139052549Y-106570431D01*
X139052549Y-106331372D01*
X140039963Y-106331372D01*
X139669020Y-105950372D01*
X139595931Y-105874929D01*
X139525184Y-105801195D01*
X139458374Y-105730879D01*
X139397096Y-105665692D01*
X139342942Y-105607343D01*
X139297508Y-105557540D01*
X139262387Y-105517994D01*
X139239174Y-105490414D01*
X139234754Y-105484706D01*
X139163626Y-105378328D01*
X139111678Y-105274467D01*
X139078547Y-105171775D01*
X139063869Y-105068905D01*
X139067281Y-104964510D01*
X139077559Y-104902000D01*
X139107657Y-104804610D01*
X139154011Y-104717431D01*
X139215427Y-104641059D01*
X139290712Y-104576093D01*
X139378672Y-104523128D01*
X139478116Y-104482763D01*
X139587848Y-104455595D01*
X139706677Y-104442221D01*
X139833408Y-104443238D01*
X139963301Y-104458632D01*
X140018026Y-104469749D01*
X140083537Y-104485757D01*
X140151952Y-104504593D01*
X140215386Y-104524196D01*
X140220781Y-104525994D01*
X140362392Y-104573546D01*
X140365153Y-104721228D01*
X140367915Y-104868910D01*
X140315310Y-104838812D01*
X140217951Y-104789123D01*
X140115267Y-104747607D01*
X140010890Y-104715128D01*
X139908454Y-104692553D01*
X139811589Y-104680745D01*
X139723928Y-104680570D01*
X139676152Y-104686616D01*
X139589840Y-104711618D01*
X139513798Y-104751461D01*
X139450134Y-104804599D01*
X139400959Y-104869488D01*
X139385227Y-104899666D01*
X139371336Y-104932370D01*
X139362865Y-104960949D01*
X139358563Y-104992401D01*
X139357177Y-105033722D01*
X139357166Y-105056392D01*
X139360431Y-105121954D01*
X139370898Y-105179084D01*
X139390546Y-105233727D01*
X139421354Y-105291830D01*
X139451004Y-105338319D01*
X139471683Y-105368358D01*
X139493911Y-105398713D01*
X139518888Y-105430702D01*
X139547812Y-105465645D01*
X139581882Y-105504863D01*
X139622296Y-105549674D01*
X139670252Y-105601400D01*
X139726950Y-105661358D01*
X139793588Y-105730871D01*
X139871365Y-105811256D01*
X139961479Y-105903835D01*
X140006027Y-105949469D01*
X140377333Y-106329566D01*
X140377333Y-106570431D01*
X139052549Y-106570431D01*
X138514666Y-106570431D01*
X138514666Y-112188313D01*
X140885333Y-112188313D01*
X140885333Y-104219686D01*
G36*
X143435294Y-104219686D02*
X140994902Y-104219686D01*
X140994902Y-105949087D01*
X141733653Y-105949087D01*
X141742093Y-105854558D01*
X141746373Y-105831899D01*
X141775803Y-105739389D01*
X141822307Y-105656142D01*
X141884702Y-105583452D01*
X141961804Y-105522614D01*
X142052427Y-105474922D01*
X142084111Y-105462641D01*
X142152340Y-105438296D01*
X142092317Y-105416410D01*
X142001548Y-105373830D01*
X141925512Y-105318230D01*
X141864936Y-105250738D01*
X141820544Y-105172480D01*
X141793061Y-105084585D01*
X141783213Y-104988181D01*
X141785005Y-104938694D01*
X141800938Y-104840693D01*
X141832537Y-104754325D01*
X141874259Y-104686169D01*
X141943172Y-104610715D01*
X142026274Y-104548833D01*
X142123029Y-104500676D01*
X142232903Y-104466399D01*
X142355359Y-104446153D01*
X142489863Y-104440093D01*
X142635880Y-104448371D01*
X142685235Y-104454110D01*
X142883152Y-104488601D01*
X143009470Y-104519240D01*
X143046823Y-104529238D01*
X143046823Y-104654430D01*
X143046620Y-104706195D01*
X143045714Y-104741040D01*
X143043665Y-104761960D01*
X143040028Y-104771956D01*
X143034363Y-104774026D01*
X143029392Y-104772544D01*
X143001704Y-104763334D01*
X142959123Y-104751581D01*
X142906344Y-104738360D01*
X142848065Y-104724746D01*
X142788982Y-104711813D01*
X142733793Y-104700634D01*
X142687194Y-104692283D01*
X142663333Y-104688832D01*
X142538725Y-104679212D01*
X142427566Y-104682092D01*
X142330289Y-104697258D01*
X142247328Y-104724498D01*
X142179116Y-104763597D01*
X142126084Y-104814341D01*
X142088666Y-104876517D01*
X142067295Y-104949910D01*
X142063115Y-104985309D01*
X142066001Y-105066263D01*
X142086307Y-105138249D01*
X142123227Y-105200344D01*
X142175958Y-105251629D01*
X142243695Y-105291182D01*
X142325633Y-105318082D01*
X142359529Y-105324667D01*
X142392495Y-105328340D01*
X142440056Y-105331460D01*
X142496887Y-105333781D01*
X142557664Y-105335053D01*
X142586137Y-105335219D01*
X142748000Y-105335294D01*
X142748000Y-105562066D01*
X142551274Y-105566783D01*
X142478442Y-105568860D01*
X142422016Y-105571372D01*
X142378479Y-105574658D01*
X142344316Y-105579058D01*
X142316010Y-105584910D01*
X142292650Y-105591693D01*
X142207847Y-105627024D01*
X142138905Y-105673122D01*
X142084054Y-105731472D01*
X142042138Y-105802255D01*
X142029931Y-105830620D01*
X142022193Y-105856702D01*
X142017948Y-105886491D01*
X142016221Y-105925976D01*
X142015988Y-105962823D01*
X142016582Y-106012403D01*
X142018975Y-106048290D01*
X142024236Y-106076699D01*
X142033436Y-106103845D01*
X142044662Y-106129510D01*
X142087610Y-106199353D01*
X142146705Y-106258491D01*
X142220733Y-106305987D01*
X142308479Y-106340907D01*
X142325209Y-106345669D01*
X142360330Y-106352854D01*
X142408205Y-106359622D01*
X142461675Y-106365067D01*
X142498980Y-106367628D01*
X142649900Y-106366643D01*
X142796832Y-106348008D01*
X142937058Y-106312185D01*
X143028480Y-106277689D01*
X143106588Y-106243920D01*
X143106588Y-106510026D01*
X143022397Y-106535706D01*
X142883816Y-106571397D01*
X142743267Y-106595139D01*
X142603603Y-106606977D01*
X142467672Y-106606956D01*
X142338327Y-106595121D01*
X142218418Y-106571517D01*
X142110794Y-106536188D01*
X142076039Y-106520814D01*
X141984668Y-106467772D01*
X141904734Y-106402181D01*
X141838741Y-106326535D01*
X141789194Y-106243329D01*
X141782681Y-106228831D01*
X141754575Y-106143089D01*
X141738023Y-106047552D01*
X141733653Y-105949087D01*
X140994902Y-105949087D01*
X140994902Y-112188313D01*
X143435294Y-112188313D01*
X143435294Y-104219686D01*
X143435294Y-104219686D01*
G37*
X143435294Y-104219686D02*
X140994902Y-104219686D01*
X140994902Y-105949087D01*
X141733653Y-105949087D01*
X141742093Y-105854558D01*
X141746373Y-105831899D01*
X141775803Y-105739389D01*
X141822307Y-105656142D01*
X141884702Y-105583452D01*
X141961804Y-105522614D01*
X142052427Y-105474922D01*
X142084111Y-105462641D01*
X142152340Y-105438296D01*
X142092317Y-105416410D01*
X142001548Y-105373830D01*
X141925512Y-105318230D01*
X141864936Y-105250738D01*
X141820544Y-105172480D01*
X141793061Y-105084585D01*
X141783213Y-104988181D01*
X141785005Y-104938694D01*
X141800938Y-104840693D01*
X141832537Y-104754325D01*
X141874259Y-104686169D01*
X141943172Y-104610715D01*
X142026274Y-104548833D01*
X142123029Y-104500676D01*
X142232903Y-104466399D01*
X142355359Y-104446153D01*
X142489863Y-104440093D01*
X142635880Y-104448371D01*
X142685235Y-104454110D01*
X142883152Y-104488601D01*
X143009470Y-104519240D01*
X143046823Y-104529238D01*
X143046823Y-104654430D01*
X143046620Y-104706195D01*
X143045714Y-104741040D01*
X143043665Y-104761960D01*
X143040028Y-104771956D01*
X143034363Y-104774026D01*
X143029392Y-104772544D01*
X143001704Y-104763334D01*
X142959123Y-104751581D01*
X142906344Y-104738360D01*
X142848065Y-104724746D01*
X142788982Y-104711813D01*
X142733793Y-104700634D01*
X142687194Y-104692283D01*
X142663333Y-104688832D01*
X142538725Y-104679212D01*
X142427566Y-104682092D01*
X142330289Y-104697258D01*
X142247328Y-104724498D01*
X142179116Y-104763597D01*
X142126084Y-104814341D01*
X142088666Y-104876517D01*
X142067295Y-104949910D01*
X142063115Y-104985309D01*
X142066001Y-105066263D01*
X142086307Y-105138249D01*
X142123227Y-105200344D01*
X142175958Y-105251629D01*
X142243695Y-105291182D01*
X142325633Y-105318082D01*
X142359529Y-105324667D01*
X142392495Y-105328340D01*
X142440056Y-105331460D01*
X142496887Y-105333781D01*
X142557664Y-105335053D01*
X142586137Y-105335219D01*
X142748000Y-105335294D01*
X142748000Y-105562066D01*
X142551274Y-105566783D01*
X142478442Y-105568860D01*
X142422016Y-105571372D01*
X142378479Y-105574658D01*
X142344316Y-105579058D01*
X142316010Y-105584910D01*
X142292650Y-105591693D01*
X142207847Y-105627024D01*
X142138905Y-105673122D01*
X142084054Y-105731472D01*
X142042138Y-105802255D01*
X142029931Y-105830620D01*
X142022193Y-105856702D01*
X142017948Y-105886491D01*
X142016221Y-105925976D01*
X142015988Y-105962823D01*
X142016582Y-106012403D01*
X142018975Y-106048290D01*
X142024236Y-106076699D01*
X142033436Y-106103845D01*
X142044662Y-106129510D01*
X142087610Y-106199353D01*
X142146705Y-106258491D01*
X142220733Y-106305987D01*
X142308479Y-106340907D01*
X142325209Y-106345669D01*
X142360330Y-106352854D01*
X142408205Y-106359622D01*
X142461675Y-106365067D01*
X142498980Y-106367628D01*
X142649900Y-106366643D01*
X142796832Y-106348008D01*
X142937058Y-106312185D01*
X143028480Y-106277689D01*
X143106588Y-106243920D01*
X143106588Y-106510026D01*
X143022397Y-106535706D01*
X142883816Y-106571397D01*
X142743267Y-106595139D01*
X142603603Y-106606977D01*
X142467672Y-106606956D01*
X142338327Y-106595121D01*
X142218418Y-106571517D01*
X142110794Y-106536188D01*
X142076039Y-106520814D01*
X141984668Y-106467772D01*
X141904734Y-106402181D01*
X141838741Y-106326535D01*
X141789194Y-106243329D01*
X141782681Y-106228831D01*
X141754575Y-106143089D01*
X141738023Y-106047552D01*
X141733653Y-105949087D01*
X140994902Y-105949087D01*
X140994902Y-112188313D01*
X143435294Y-112188313D01*
X143435294Y-104219686D01*
M02*
